<?xml version="1.0" encoding="UTF-8"?>
<svg width="32px" height="32px" viewBox="0 0 32 32" version="1.1" xmlns="http://www.w3.org/2000/svg">
    <title>Scrapybara Icon</title>
    <g id="Scrapybara-Icon" stroke="none" stroke-width="1" fill="none" fill-rule="evenodd">
        <path d="M16,2 C23.732,2 30,8.268 30,16 C30,23.732 23.732,30 16,30 C8.268,30 2,23.732 2,16 C2,8.268 8.268,2 16,2 Z" id="Background" fill="#77592F"></path>
        <g id="Capybara" transform="translate(6, 8)" fill="#F3E8D6" fill-rule="nonzero">
            <path d="M19,7 C19,3.134 15.866,0 12,0 L7,0 C3.134,0 0,3.134 0,7 C0,10.866 3.134,14 7,14 L12,14 C15.866,14 19,10.866 19,7 Z" id="Body"></path>
            <circle id="EyeRight" fill="#333333" cx="14" cy="5" r="1.5"></circle>
            <circle id="EyeLeft" fill="#333333" cx="5" cy="5" r="1.5"></circle>
            <path d="M10,8 C10,9.105 9.105,10 8,10 C6.895,10 6,9.105 6,8 L10,8 Z" id="Nose" fill="#333333"></path>
            <path d="M4,2 C4,1.448 3.552,1 3,1 C2.448,1 2,1.448 2,2 L2,4 C2,4.552 2.448,5 3,5 C3.552,5 4,4.552 4,4 L4,2 Z" id="EarLeft" fill="#77592F"></path>
            <path d="M16,2 C16,1.448 15.552,1 15,1 C14.448,1 14,1.448 14,2 L14,4 C14,4.552 14.448,5 15,5 C15.552,5 16,4.552 16,4 L16,2 Z" id="EarRight" fill="#77592F"></path>
        </g>
    </g>
</svg> 